<?xml version="1.0" encoding="UTF-8"?>
<svg width="155px" height="70px" viewBox="0 0 155 70" version="1.1" xmlns="http://www.w3.org/2000/svg" xmlns:xlink="http://www.w3.org/1999/xlink">
    <!-- Generator: Sketch 50.2 (55047) - http://www.bohemiancoding.com/sketch -->
        <path d="M27.6959983,13.4400017 C27.9519996,13.2480008 28.2239969,13.2160011 28.5119983,13.3440017 C28.7999997,13.4720023 28.9119986,13.7279998 28.8479983,14.1120017 C28.5279967,15.6480093 28.5839961,16.7439982 29.0159983,17.4000015 C29.4480004,18.0560047 30.0559943,18.3920013 30.8399982,18.4080014 C31.624002,18.4240015 32.4639936,18.1600041 33.359998,17.6160015 C34.2560024,17.0719988 34.999995,16.3600059 35.5919979,15.4800016 C36.1840008,14.5999972 36.5119975,13.6080072 36.5759978,12.5040018 C36.6399981,11.3999963 36.2240023,10.2880075 35.3279979,9.16800196 C34.5599941,8.23999737 33.6240035,7.66400317 32.5199981,7.44000206 C31.4159926,7.21600095 30.2400044,7.25600055 28.9919983,7.56000205 C27.7439921,7.86400355 26.5040046,8.38399832 25.2719985,9.12000196 C24.0399924,9.8560056 22.9360035,10.7279968 21.9599987,11.7360018 C20.9839939,12.7440068 20.1920018,13.8479957 19.5839988,15.0480016 C18.9759958,16.2480075 18.6879987,17.4399955 18.7199989,18.6240014 C18.751999,20.0640085 19.2239943,21.3279958 20.1359988,22.4160012 C21.0480033,23.5040065 22.1519922,24.5599959 23.4479986,25.584001 C24.744005,26.608006 26.1039913,27.6799953 27.5279984,28.8000008 C28.9520054,29.9200063 30.1919929,31.2319931 31.2479981,32.7360006 C32.3040034,34.240008 33.0479959,36.02399 33.479998,38.0880002 C33.9120001,40.1520104 33.7760015,42.6239856 33.071998,45.5039998 C32.6879961,47.168008 32.0400027,48.7279923 31.1279981,50.1839995 C30.2159936,51.6400067 29.0080058,52.903994 27.5039984,53.9759993 C25.9999909,55.0480046 24.1840092,55.8879961 22.0559987,56.4959991 C19.9279882,57.1040021 17.4400132,57.4079991 14.5919991,57.4079991 C11.9999863,57.4079991 9.76800878,56.9680035 7.89599953,56.0879992 C6.02399028,55.2079948 4.49600565,54.0640063 3.3119998,52.6559994 C2.12799395,51.2479924 1.27200256,49.6640083 0.743999956,47.9039996 C0.215997347,46.143991 -4.79999971e-07,44.3920086 0.0959999943,42.648 C0.192000469,40.9039913 0.583996525,39.248008 1.27199992,37.6800003 C1.96000332,36.1119925 2.91199375,34.8160055 4.12799975,33.7920005 C5.40800608,32.7039951 6.71199296,32.024002 8.03999952,31.7520006 C9.36800608,31.4799993 10.6159935,31.4879992 11.7839993,31.7760006 C12.9520051,32.064002 13.9919946,32.5839968 14.9039991,33.3360005 C15.8160036,34.0880042 16.5199965,34.9679954 17.015999,35.9760004 C17.5120014,36.9840053 17.7359992,38.0559946 17.6879989,39.1920002 C17.6399987,40.3280058 17.2480027,41.4239948 16.511999,42.48 C16.3199981,42.6720009 16.0800005,42.7520001 15.7919991,42.72 C15.5359978,42.6559996 15.3759994,42.4800014 15.3119991,42.192 C15.1519983,41.2959956 14.7680022,40.5680029 14.1599992,40.0080001 C13.5519962,39.4479974 12.8800029,39.0960009 12.1439993,38.9520002 C11.4079956,38.8079995 10.6960028,38.8799987 10.0079994,39.1680002 C9.319996,39.4560016 8.83200091,39.9999961 8.54399949,40.8000001 C8.06399712,42.0480062 7.99199784,43.1439952 8.3279995,44.0879999 C8.66400116,45.0320045 9.23199545,45.8159967 10.0319994,46.4399997 C10.8320034,47.0640028 11.8079935,47.5039984 12.9599992,47.7599997 C14.1120049,48.0160009 15.2799932,48.0720004 16.463999,47.9279996 C17.6480049,47.7839989 18.7759935,47.4320025 19.8479988,46.8719997 C20.9200041,46.3119969 21.7919953,45.5200049 22.4639987,44.4959999 C23.4560036,42.9599923 24.0559975,41.5760062 24.2639986,40.3440001 C24.4719996,39.111994 24.4000003,37.9760054 24.0479986,36.9360003 C23.6959968,35.8959952 23.1440024,34.9280049 22.3919987,34.0320005 C21.639995,33.135996 20.7840036,32.2560049 19.8239988,31.3920006 C18.8639941,30.5279964 17.880004,29.6560051 16.871999,28.7760008 C15.863994,27.8959964 14.9440033,26.9600059 14.1119992,25.968001 C13.279995,24.9759961 12.592002,23.888007 12.0479993,22.7040012 C11.5039966,21.5199953 11.2319993,20.2080085 11.2319993,18.7680014 C11.3279998,16.1439884 12.0399926,13.7440126 13.3679992,11.5680018 C14.6960058,9.39199106 16.3759889,7.51200998 18.4079989,5.92800215 C20.4400089,4.34399432 22.6879863,3.11200672 25.1519985,2.23200237 C27.6160107,1.35199802 30.0319864,0.912002449 32.3999981,0.912002449 C34.7680098,0.912002449 36.8719886,1.3439981 38.7119977,2.20800237 C40.5520068,3.07200664 41.9359929,4.30399425 42.8639974,5.90400215 C43.792002,7.50401006 44.1679982,9.43999058 43.9919974,11.7120018 C43.8159965,13.984013 42.8960058,16.5279874 41.2319975,19.3440014 C39.9519912,21.4880119 38.5120057,23.0479962 36.9119978,24.0240011 C35.3119899,25.0000059 33.7360057,25.5200007 32.1839981,25.584001 C30.6319904,25.6480013 29.2240046,25.3360044 27.9599983,24.648001 C26.6959921,23.9599976 25.7760013,23.0400069 25.1999985,21.8880012 C24.6239957,20.7359955 24.487997,19.4160088 24.7919985,17.9280014 C25.096,16.4399941 26.0639903,14.9440091 27.6959983,13.4400017 Z M67.871996,27.7440008 C68.0319967,27.5199997 68.2239948,27.4640003 68.4479959,27.5760009 C68.671997,27.6880014 68.7519962,27.8719996 68.6879959,28.1280008 C68.303994,29.3440068 67.6800003,30.7439928 66.815996,32.3280006 C65.9519917,33.9120084 64.936002,35.4239932 63.7679962,36.8640003 C62.5999904,38.3040074 61.3360031,39.5199952 59.9759964,40.5120001 C58.6159897,41.504005 57.2480035,42 55.8719967,42 C53.9519872,42 52.6560002,41.4400056 51.9839969,40.3200001 C51.3119936,39.1999946 51.1039957,37.7920087 51.3599969,36.0960004 C50.1759911,37.7280084 49.0640023,38.9519961 48.0239971,39.7680001 C46.983992,40.5840042 46.0640013,41.1599984 45.2639973,41.496 C44.4639933,41.8320017 43.8,42 43.2719974,42 L42.1919975,42 C40.5599894,42 39.4160009,41.408006 38.7599977,40.2240001 C38.1039944,39.0399943 37.8559969,37.5600091 38.0159977,35.7840004 C38.1759985,34.0079916 38.6719935,32.080011 39.5039976,30.0000007 C40.3360018,27.9199904 41.4239908,25.9920098 42.7679975,24.2160011 C44.1120041,22.4399923 45.6479886,20.9600072 47.3759972,19.7760013 C49.1040057,18.5919955 50.9279874,18.0000014 52.8479969,18.0000014 C53.9680024,18.0000014 54.8719933,18.1679997 55.5599967,18.5040014 C56.2480001,18.8400031 56.7999945,19.2959985 57.2159966,19.8720013 C57.2799969,19.7120005 57.3359963,19.5520021 57.3839966,19.3920013 C57.4319968,19.2320006 57.4879963,19.0720022 57.5519966,18.9120014 C57.8079978,18.2399981 58.2719932,17.9360011 58.9439965,18.0000014 C59.5199993,18.0640017 60.1119934,18.1680007 60.7199964,18.3120014 C61.3279994,18.4560021 61.863994,18.6799999 62.3279963,18.9840014 C62.7919986,19.2880029 63.1279952,19.6879988 63.3359962,20.1840013 C63.5439973,20.6800038 63.5039977,21.3119974 63.2159962,22.0800012 C62.959995,22.5600036 62.5999986,23.215997 62.1359963,24.0480011 C61.671994,24.8800052 61.1999988,25.7679962 60.7199964,26.7120009 C60.239994,27.6560056 59.8079984,28.6159959 59.4239965,29.5920007 C59.0399946,30.5680056 58.7919971,31.4479967 58.6799965,32.2320006 C58.5679959,33.0160045 58.6479951,33.655998 58.9199965,34.1520005 C59.1919978,34.6480029 59.7439923,34.8960004 60.5759964,34.8960004 C61.1519992,34.8960004 61.767993,34.6480029 62.4239963,34.1520005 C63.0799995,33.655998 63.7359929,33.0400042 64.3919962,32.3040006 C65.0479994,31.5679969 65.679993,30.7920047 66.287996,29.9760007 C66.8959991,29.1599967 67.4239937,28.4160042 67.871996,27.7440008 Z M52.7039969,27.8400008 C52.9599981,27.5199993 53.2319954,27.0880036 53.5199968,26.5440009 C53.8079982,25.9999982 54.0079962,25.4560037 54.1199968,24.912001 C54.2319973,24.3679983 54.2079976,23.8560035 54.0479968,23.3760011 C53.887996,22.8959987 53.5199997,22.576002 52.9439968,22.4160012 C52.3039937,22.2560004 51.576001,22.4159988 50.759997,22.8960011 C49.9439929,23.3760035 49.1520009,24.0479968 48.3839971,24.912001 C47.6159933,25.7760053 46.9280002,26.7599954 46.3199972,27.8640008 C45.7119942,28.9680063 45.3119983,30.0639953 45.1199973,31.1520006 C44.9279964,32.3040063 44.9279964,33.1519978 45.1199973,33.6960005 C45.3119983,34.2400032 45.6239951,34.552 46.0559973,34.6320004 C46.4879994,34.7120008 46.9839944,34.5760022 47.5439972,34.2240005 C48.1039999,33.8719987 48.6239947,33.344004 49.1039971,32.6400006 C49.5839994,31.9359971 49.9839954,31.0880056 50.303997,30.0960007 C50.6239986,29.1039958 50.7679971,28.0160068 50.735997,26.8320009 C51.0879987,26.8640011 51.4479951,26.9759999 51.8159969,27.1680009 C52.1839987,27.3600018 52.4799958,27.5839996 52.7039969,27.8400008 Z M70.1279958,26.1600009 C70.3519969,26.1280008 70.5119953,26.2000001 70.6079958,26.3760009 C70.7039963,26.5520018 70.6879964,26.7200001 70.5599958,26.8800009 C69.8879925,27.6800049 69.4719967,28.5039966 69.3119959,29.3520008 C69.1519951,30.2000049 69.1679949,30.9679972 69.3599959,31.6560006 C69.5519968,32.344004 69.8879934,32.9039984 70.3679958,33.3360005 C70.8479982,33.7680027 71.4079925,33.9680006 72.0479957,33.9360005 C73.0400006,33.9040003 73.8479925,33.6560028 74.4719956,33.1920005 C75.0959986,32.7279982 75.5759938,32.1360042 75.9119955,31.4160006 C76.2479971,30.6959971 76.455995,29.8880052 76.5359954,28.9920008 C76.6159958,28.0959963 76.6079959,27.1840055 76.5119954,26.2560009 C76.415995,25.3279964 76.2559966,24.4320054 76.0319955,23.5680011 C75.8079944,22.7039968 75.5679968,21.9520044 75.3119955,21.3120012 C75.2799954,21.2480009 75.2639955,21.2080013 75.2639955,21.1920012 C75.2639955,21.1760012 75.2479957,21.1360016 75.2159955,21.0720012 C74.7679933,21.4560031 74.3439976,21.8239994 73.9439956,22.1760012 C73.5439936,22.5280029 73.1839972,22.8319999 72.8639957,23.0880011 C72.5119939,23.4080027 72.1599975,23.7119997 71.8079957,24.0000011 C71.4239938,24.0640014 71.1199969,24.0240018 70.8959958,23.8800011 C70.6719947,23.7360004 70.5119963,23.5840019 70.4159958,23.4240011 C70.2879952,23.2320002 70.207996,22.9920026 70.1759958,22.7040012 L76.8479954,16.0320015 C77.3599979,15.519999 77.9279922,15.0480038 78.5519953,14.6160016 C79.1759984,14.1839995 79.7999921,13.8240031 80.4239952,13.5360017 C81.0479983,13.2480003 81.6399923,13.0560022 82.1999951,12.9600017 C82.7599979,12.8640013 83.2319931,12.8640013 83.615995,12.9600017 C84.2559982,13.1520027 84.7839929,13.5119991 85.1999949,14.0400017 C85.615997,14.5680043 85.8879942,15.1039989 86.0159949,15.6480016 C86.1439955,16.1920043 86.1039959,16.6879993 85.8959949,17.1360015 C85.6879939,17.5840037 85.2959978,17.856001 84.719995,17.9520014 C82.8639858,18.2080027 81.6239983,18.7119976 80.9999952,19.4640013 C80.3759921,20.2160051 80.0799951,21.0719964 80.1119952,22.0320012 C80.1439954,22.9920059 80.383993,23.975996 80.8319952,24.984001 C81.2799974,25.992006 81.6479937,26.8959969 81.9359951,27.6960009 C82.5439981,29.2960088 82.7279963,30.9359923 82.4879951,32.6160006 C82.2479939,34.2960089 81.6479999,35.8319934 80.6879952,37.2240003 C79.7279904,38.6160072 78.4320035,39.7599957 76.7999954,40.6560001 C75.1679874,41.5520045 73.2480067,42 71.0399958,42 C69.4399879,42 68.0880015,41.6320037 66.983996,40.8960001 C65.8799906,40.1599964 65.0479989,39.2400057 64.4879962,38.1360002 C63.9279934,37.0319948 63.6239964,35.8240069 63.5759962,34.5120004 C63.527996,33.199994 63.7359939,31.9600064 64.1999962,30.7920007 C64.6639985,29.6239949 65.3919911,28.6080051 66.383996,27.7440008 C67.3760009,26.8799966 68.6239884,26.3520019 70.1279958,26.1600009 Z M112.271993,29.0880008 C112.431994,28.8639997 112.623992,28.8080002 112.847993,28.9200008 C113.071994,29.0320013 113.151994,29.2159995 113.087993,29.4720007 C112.703991,30.6880068 111.967999,32.0159934 110.879993,33.4560005 C109.791988,34.8960076 108.544001,36.2559939 107.135994,37.5360003 C105.727987,38.8160066 104.224002,39.8799959 102.623994,40.7280001 C101.023986,41.5760043 99.5360009,42 98.1599941,42 C97.1999894,42 96.4319971,41.8480015 95.8559943,41.544 C95.2799914,41.2399985 94.8479958,40.8400025 94.5599944,40.3440001 C94.2719929,39.8479976 94.0959947,39.2720034 94.0319944,38.6160002 C93.9679941,37.959997 93.9839939,37.2800038 94.0799944,36.5760003 C94.1759949,35.8719968 94.3199934,35.1680039 94.5119944,34.4640004 C94.7039953,33.759997 94.9119932,33.1040036 95.1359943,32.4960006 C94.6879921,32.5280007 94.2319967,32.5520005 93.7679944,32.5680006 C93.3039921,32.5840006 92.815997,32.6080004 92.3039945,32.6400006 C91.7599918,34.0800077 91.3679958,35.5199932 91.1279946,36.9600003 C90.8879934,38.4000074 90.927993,39.7919934 91.2479946,41.1360001 C90.5759912,41.4880018 89.8399986,41.7439992 89.0399947,41.904 C88.2399907,42.0640008 87.4879983,42.0640008 86.7839948,41.904 C86.0799913,41.7439992 85.4799974,41.3920028 84.9839949,40.8480001 C84.4879925,40.3039974 84.1919955,39.4880056 84.095995,38.4000002 C83.9999945,37.5679961 84.0799937,36.6480054 84.335995,35.6400004 C84.5919962,34.6319954 84.9439927,33.5680061 85.3919949,32.4480006 C85.8399971,31.327995 86.3599919,30.2000064 86.9519948,29.0640008 C87.5439977,27.9279952 88.1439917,26.8160063 88.7519947,25.728001 C89.3599977,24.6399956 89.9519918,23.6160059 90.5279946,22.6560012 C91.1039974,21.6959964 91.5839926,20.8320051 91.9679945,20.0640013 C93.0239997,18.0799915 93.8639913,16.2080103 94.4879944,14.4480016 C95.1119975,12.6879929 95.5279933,11.1120088 95.7359943,9.72000192 C95.9439953,8.32799505 95.9439953,7.15200688 95.7359943,6.19200213 C95.5279933,5.23199739 95.1039975,4.54400431 94.4639944,4.12800226 C94.8799964,3.7120002 95.3359918,3.3440039 95.8319943,3.02400232 C96.3279967,2.70400074 96.8799912,2.54400235 97.4879942,2.54400235 C99.1840026,2.54400235 100.43199,2.87999897 101.231994,3.55200229 C102.031998,4.22400561 102.519993,5.11199668 102.695994,6.21600213 C102.871995,7.32000759 102.807995,8.55999511 102.503994,9.93600191 C102.199992,11.3120087 101.783997,12.7039947 101.255994,14.1120017 C100.727991,15.5200086 100.143997,16.8799949 99.5039941,18.1920014 C98.8639909,19.5040079 98.3199964,20.6239966 97.8719942,21.5520012 L97.7759942,21.7440012 C98.7999992,20.8479968 99.919988,20.0560047 101.135994,19.3680013 C102.352,18.6799979 103.663987,18.2080027 105.071994,17.9520014 C106.223999,17.9520014 107.20799,18.2079989 108.023994,18.7200014 C108.839998,19.2320039 109.431992,19.9039972 109.799993,20.7360013 C110.167995,21.5680054 110.295994,22.495996 110.183993,23.5200011 C110.071993,24.5440062 109.655997,25.5599959 108.935994,26.5680009 C108.21599,27.5760059 107.168,28.5279963 105.791994,29.4240007 C104.415987,30.3200052 102.656005,31.0399979 100.511994,31.5840006 C100.063992,32.8640069 99.9599928,33.8719968 100.199994,34.6080004 C100.439995,35.3440041 101.151988,35.7120004 102.335994,35.7120004 C102.879997,35.7120004 103.623989,35.4880026 104.567994,35.0400004 C105.511998,34.5919982 106.471989,34.0320038 107.447994,33.3600005 C108.423998,32.6879972 109.359989,31.9680044 110.255993,31.2000006 C111.151998,30.4319968 111.823991,29.7280039 112.271993,29.0880008 Z M95.7599943,27.8880008 C96.4639978,27.8240005 97.335989,27.6240025 98.3759941,27.2880009 C99.4159993,26.9519992 100.399989,26.5040037 101.327994,25.944001 C102.255999,25.3839982 103.05599,24.7200049 103.727994,23.9520011 C104.399997,23.1839973 104.735994,22.320006 104.735994,21.3600012 C103.423987,21.8080034 102.223999,22.3999975 101.135994,23.1360011 C100.047989,23.8720048 99.1039981,24.5919975 98.3039941,25.296001 C97.3759896,26.1280051 96.5279981,26.9919964 95.7599943,27.8880008 Z M122.207993,4.17600225 C122.815996,4.17600225 123.39999,4.29600105 123.959993,4.53600223 C124.519995,4.77600342 124.999991,5.0960002 125.399993,5.49600218 C125.799995,5.89600415 126.119991,6.3679994 126.359992,6.91200209 C126.599994,7.45600478 126.719992,8.03199898 126.719992,8.64000199 C126.719992,9.28000515 126.599994,9.87199919 126.359992,10.4160019 C126.119991,10.9600046 125.799995,11.4319998 125.399993,11.8320018 C124.999991,12.2320038 124.519995,12.5520006 123.959993,12.7920017 C123.39999,13.0320029 122.815996,13.1520017 122.207993,13.1520017 C121.56799,13.1520017 120.975996,13.0320029 120.431993,12.7920017 C119.88799,12.5520006 119.415995,12.2320038 119.015993,11.8320018 C118.615991,11.4319998 118.295994,10.9600046 118.055993,10.4160019 C117.815992,9.87199919 117.695993,9.28000515 117.695993,8.64000199 C117.695993,8.03199898 117.815992,7.45600478 118.055993,6.91200209 C118.295994,6.3679994 118.615991,5.89600415 119.015993,5.49600218 C119.415995,5.0960002 119.88799,4.77600342 120.431993,4.53600223 C120.975996,4.29600105 121.56799,4.17600225 122.207993,4.17600225 Z M119.375993,34.8480004 C119.951996,34.8480004 120.56799,34.6000029 121.223993,34.1040005 C121.879996,33.607998 122.535989,33.0000041 123.191993,32.2800006 C123.847996,31.559997 124.47999,30.7840048 125.087993,29.9520007 C125.695996,29.1199966 126.22399,28.384004 126.671992,27.7440008 C126.831993,27.5199997 127.023991,27.4640003 127.247992,27.5760009 C127.471994,27.6880014 127.551993,27.8719996 127.487992,28.1280008 C127.103991,29.3440068 126.479997,30.7439928 125.615993,32.3280006 C124.751988,33.9120084 123.735998,35.4239932 122.567993,36.8640003 C121.399987,38.3040074 120.136,39.5199952 118.775993,40.5120001 C117.415986,41.504005 116.048,42 114.671993,42 C113.519987,42 112.599997,41.7840022 111.911993,41.352 C111.22399,40.9199979 110.727995,40.3360038 110.423993,39.6000001 C110.119992,38.8639965 109.999993,38.0080051 110.063993,37.0320003 C110.127994,36.0559955 110.319992,35.008006 110.639993,33.8880005 C111.023995,32.575994 111.399992,31.4560053 111.767993,30.5280007 C112.135995,29.5999961 112.535991,28.6320058 112.967993,27.6240009 C113.399995,26.6159959 113.88799,25.4400077 114.431993,24.0960011 C114.975996,22.7519944 115.615989,21.008012 116.351993,18.8640014 C116.479994,18.576 116.663992,18.3440023 116.903993,18.1680014 C117.143994,17.9920006 117.423991,17.9200013 117.743993,17.9520014 C118.319996,18.0160017 118.91199,18.1200007 119.519993,18.2640014 C120.127996,18.4080021 120.66399,18.6319999 121.127993,18.9360014 C121.591995,19.2400029 121.927992,19.6479988 122.135993,20.1600013 C122.343994,20.6720038 122.303994,21.3119974 122.015993,22.0800012 C121.759991,22.5920037 121.399995,23.255997 120.935993,24.0720011 C120.47199,24.8880051 119.999995,25.7679962 119.519993,26.7120009 C119.039991,27.6560056 118.607995,28.607996 118.223993,29.5680007 C117.839991,30.5280055 117.591994,31.3999967 117.479993,32.1840006 C117.367992,32.9680045 117.447992,33.607998 117.719993,34.1040005 C117.991994,34.6000029 118.543989,34.8480004 119.375993,34.8480004 Z M151.631991,27.7440008 C151.791992,27.5199997 151.98399,27.4640003 152.207991,27.5760009 C152.431992,27.6880014 152.511991,27.8719996 152.447991,28.1280008 C152.063989,29.3440068 151.439995,30.7439928 150.575991,32.3280006 C149.711987,33.9120084 148.695997,35.4239932 147.527991,36.8640003 C146.359985,38.3040074 145.095998,39.5199952 143.735991,40.5120001 C142.375985,41.504005 141.007998,42 139.631992,42 C137.711982,42 136.415995,41.4400056 135.743992,40.3200001 C135.071989,39.1999946 134.863991,37.7920087 135.119992,36.0960004 C133.935986,37.7280084 132.823997,38.9519961 131.783992,39.7680001 C130.743987,40.5840042 129.823996,41.1599984 129.023992,41.496 C128.223988,41.8320017 127.559995,42 127.031992,42 L125.951992,42 C124.319984,42 123.175996,41.408006 122.519993,40.2240001 C121.863989,39.0399943 121.615992,37.5600091 121.775993,35.7840004 C121.935994,34.0079916 122.431989,32.080011 123.263993,30.0000007 C124.095997,27.9199904 125.183986,25.9920098 126.527992,24.2160011 C127.871999,22.4399923 129.407984,20.9600072 131.135992,19.7760013 C132.864001,18.5919955 134.687982,18.0000014 136.607992,18.0000014 C137.727997,18.0000014 138.631988,18.1679997 139.319992,18.5040014 C140.007995,18.8400031 140.55999,19.2959985 140.975992,19.8720013 C141.039992,19.7120005 141.095991,19.5520021 141.143992,19.3920013 C141.191992,19.2320006 141.247991,19.0720022 141.311992,18.9120014 C141.567993,18.2399981 142.031988,17.9360011 142.703991,18.0000014 C143.279994,18.0640017 143.871988,18.1680007 144.479991,18.3120014 C145.087994,18.4560021 145.623989,18.6799999 146.087991,18.9840014 C146.551994,19.2880029 146.88799,19.6879988 147.095991,20.1840013 C147.303992,20.6800038 147.263993,21.3119974 146.975991,22.0800012 C146.71999,22.5600036 146.359994,23.215997 145.895991,24.0480011 C145.431989,24.8800052 144.959994,25.7679962 144.479991,26.7120009 C143.999989,27.6560056 143.567993,28.6159959 143.183991,29.5920007 C142.79999,30.5680056 142.551992,31.4479967 142.439992,32.2320006 C142.327991,33.0160045 142.40799,33.655998 142.679991,34.1520005 C142.951993,34.6480029 143.503987,34.8960004 144.335991,34.8960004 C144.911994,34.8960004 145.527988,34.6480029 146.183991,34.1520005 C146.839995,33.655998 147.495988,33.0400042 148.151991,32.3040006 C148.807994,31.5679969 149.439988,30.7920047 150.047991,29.9760007 C150.655994,29.1599967 151.183989,28.4160042 151.631991,27.7440008 Z M136.463992,27.8400008 C136.719993,27.5199993 136.99199,27.0880036 137.279992,26.5440009 C137.567993,25.9999982 137.767991,25.4560037 137.879992,24.912001 C137.991992,24.3679983 137.967993,23.8560035 137.807992,23.3760011 C137.647991,22.8959987 137.279995,22.576002 136.703992,22.4160012 C136.063989,22.2560004 135.335996,22.4159988 134.519992,22.8960011 C133.703988,23.3760035 132.911996,24.0479968 132.143992,24.912001 C131.375988,25.7760053 130.687995,26.7599954 130.079992,27.8640008 C129.471989,28.9680063 129.071993,30.0639953 128.879992,31.1520006 C128.687991,32.3040063 128.687991,33.1519978 128.879992,33.6960005 C129.071993,34.2400032 129.38399,34.552 129.815992,34.6320004 C130.247994,34.7120008 130.743989,34.5760022 131.303992,34.2240005 C131.863995,33.8719987 132.38399,33.344004 132.863992,32.6400006 C133.343994,31.9359971 133.74399,31.0880056 134.063992,30.0960007 C134.383994,29.1039958 134.527992,28.0160068 134.495992,26.8320009 C134.847994,26.8640011 135.20799,26.9759999 135.575992,27.1680009 C135.943994,27.3600018 136.239991,27.5839996 136.463992,27.8400008 Z" id="path-1"></path>
        <filter x="-0.7%" y="-1.8%" width="102.6%" height="107.1%" filterUnits="objectBoundingBox" id="filter-2">
            <feOffset dx="2" dy="2" in="SourceAlpha" result="shadowOffsetOuter1"></feOffset>
            <feColorMatrix values="0 0 0 0 0   0 0 0 0 0   0 0 0 0 0  0 0 0 0.0705389493 0" type="matrix" in="shadowOffsetOuter1"></feColorMatrix>
        </filter>
        <path d="M38.0159999,67 L38.0159999,49.840001 L44.3279995,49.840001 C47.7599993,49.840001 50.1599992,51.3760009 50.1599992,54.3280008 C50.1599992,55.7680007 49.4639992,57.2320006 48.1679993,57.9760005 L48.1679993,58.0240005 C50.1359992,58.6240005 50.8559991,60.3760004 50.8559991,61.8880003 C50.8559991,65.6320001 47.7359993,67 44.3279995,67 L38.0159999,67 Z M42.2159996,56.4880006 L44.3759995,56.4880006 C45.4319994,56.4880006 45.8879994,55.7200007 45.8879994,54.9040007 C45.8879994,54.1120008 45.4319994,53.4400008 44.3039995,53.4400008 L42.2159996,53.4400008 L42.2159996,56.4880006 Z M42.2159996,63.4000002 L44.7359995,63.4000002 C45.9599994,63.4000002 46.5599994,62.5600003 46.5599994,61.6000003 C46.5599994,60.6400004 45.9839994,59.8480004 44.7599995,59.8480004 L42.2159996,59.8480004 L42.2159996,63.4000002 Z M52.655999,58.3120005 C52.655999,53.3920008 56.4479988,49.552001 61.6319985,49.552001 C66.8159982,49.552001 70.6079979,53.3920008 70.6079979,58.3120005 C70.6079979,63.3520002 66.8159982,67.288 61.6319985,67.288 C56.4479988,67.288 52.655999,63.3520002 52.655999,58.3120005 Z M56.9999987,58.3120005 C56.9999987,61.2400003 59.0639986,63.4480002 61.6319985,63.4480002 C64.1999983,63.4480002 66.2639982,61.2400003 66.2639982,58.3120005 C66.2639982,55.5040007 64.1999983,53.3920008 61.6319985,53.3920008 C59.0639986,53.3920008 56.9999987,55.5040007 56.9999987,58.3120005 Z M73.4639978,67 L73.4639978,49.840001 L77.7119975,49.840001 L82.4639972,57.8560005 C83.1359972,58.9840005 83.9039971,60.7840004 83.9039971,60.7840004 L83.9519971,60.7840004 C83.9519971,60.7840004 83.7599972,58.9360005 83.7599972,57.8560005 L83.7599972,49.840001 L87.9599969,49.840001 L87.9599969,67 L83.7359972,67 L78.9599974,59.0080005 C78.2879975,57.8800005 77.5199975,56.0800007 77.5199975,56.0800007 L77.4719975,56.0800007 C77.4719975,56.0800007 77.6639975,57.9280005 77.6639975,59.0080005 L77.6639975,67 L73.4639978,67 Z M91.9919967,67 L91.9919967,49.840001 L96.1919964,49.840001 L96.1919964,67 L91.9919967,67 Z M98.9519962,64.8400001 L101.159996,61.6480003 C101.159996,61.6480003 103.103996,63.4240002 105.263996,63.4240002 C106.127996,63.4240002 107.063996,63.0880002 107.063996,62.0560003 C107.063996,60.0160004 99.3359962,60.0880004 99.3359962,54.8080007 C99.3359962,51.6400009 101.999996,49.552001 105.407996,49.552001 C109.103996,49.552001 110.927996,51.4960009 110.927996,51.4960009 L109.151996,54.9280007 C109.151996,54.9280007 107.423996,53.4160008 105.359996,53.4160008 C104.495996,53.4160008 103.535996,53.8000008 103.535996,54.7600007 C103.535996,56.9200006 111.263996,56.5360006 111.263996,61.9600003 C111.263996,64.8160001 109.079996,67.288 105.215996,67.288 C101.183996,67.288 98.9519962,64.8400001 98.9519962,64.8400001 Z" id="path-3"></path>
        <filter x="-1.4%" y="-5.6%" width="105.5%" height="122.6%" filterUnits="objectBoundingBox" id="filter-4">
            <feOffset dx="2" dy="2" in="SourceAlpha" result="shadowOffsetOuter1"></feOffset>
            <feColorMatrix values="0 0 0 0 0   0 0 0 0 0   0 0 0 0 0  0 0 0 0.0705389493 0" type="matrix" in="shadowOffsetOuter1"></feColorMatrix>
        </filter>
</svg>
