<?xml version="1.0" standalone="no"?>
<!DOCTYPE svg PUBLIC "-//W3C//DTD SVG 20010904//EN"
 "http://www.w3.org/TR/2001/REC-SVG-20010904/DTD/svg10.dtd">
<svg version="1.0" xmlns="http://www.w3.org/2000/svg"
 width="267.000000pt" height="267.000000pt" viewBox="0 0 267.000000 267.000000"
 preserveAspectRatio="xMidYMid meet">
<metadata>
Created by potrace 1.11, written by Peter Selinger 2001-2013
</metadata>
<g transform="translate(0.000000,267.000000) scale(0.100000,-0.100000)"
fill="#000000" stroke="none">
<path d="M1700 2440 c0 -6 -32 -10 -75 -10 -43 0 -75 -4 -75 -10 0 -5 -16 -10
-35 -10 -19 0 -35 -4 -35 -10 0 -5 -13 -10 -29 -10 -16 0 -31 -4 -33 -8 -4
-11 -111 -62 -129 -62 -8 0 -21 -9 -29 -20 -8 -11 -20 -20 -26 -20 -6 0 -27
-18 -47 -40 -19 -22 -41 -40 -48 -40 -18 0 -69 -47 -69 -63 0 -7 -13 -25 -28
-42 -16 -16 -35 -45 -43 -62 -7 -18 -17 -33 -21 -33 -5 0 -8 -9 -8 -20 0 -11
-4 -20 -10 -20 -5 0 -10 -9 -10 -20 0 -11 -4 -20 -9 -20 -9 0 -15 -37 -27
-172 -4 -47 -3 -68 5 -68 6 0 11 -13 11 -30 0 -16 3 -30 8 -30 4 0 14 -15 21
-32 8 -18 23 -40 33 -49 10 -9 18 -22 18 -28 0 -14 15 -33 49 -64 13 -12 44
-41 67 -64 24 -24 46 -43 49 -43 3 0 20 -14 38 -30 18 -17 56 -52 85 -79 28
-28 52 -56 52 -64 0 -8 7 -20 15 -27 8 -7 15 -19 15 -26 0 -8 5 -14 10 -14 13
0 13 -174 0 -198 -5 -9 -17 -35 -27 -57 -20 -46 -95 -125 -118 -125 -8 0 -15
-3 -15 -8 0 -19 -69 -35 -156 -35 -79 -1 -100 3 -141 24 -56 28 -93 62 -93 84
0 8 -4 15 -10 15 -6 0 -10 28 -10 65 0 37 4 65 10 65 6 0 10 8 10 18 0 11 14
24 38 35 43 19 92 23 92 7 0 -5 8 -10 18 -10 23 0 72 -53 72 -77 1 -23 23 -53
39 -53 17 0 41 26 41 44 0 9 5 16 10 16 6 0 10 14 10 30 0 17 5 30 10 30 6 0
10 20 10 45 0 25 -4 45 -10 45 -5 0 -10 14 -10 30 0 17 -4 30 -10 30 -5 0 -10
4 -10 10 0 14 -103 120 -116 120 -7 0 -14 6 -17 13 -3 9 -39 12 -135 12 -123
0 -131 -1 -150 -22 -11 -13 -25 -23 -31 -23 -25 0 -131 -124 -131 -153 0 -10
-4 -17 -10 -17 -5 0 -10 -9 -10 -20 0 -11 -4 -20 -10 -20 -5 0 -10 -11 -10
-25 0 -14 -4 -25 -10 -25 -6 0 -10 -48 -10 -125 0 -77 4 -125 10 -125 6 0 10
-14 10 -30 0 -28 16 -67 31 -80 4 -3 10 -20 14 -38 4 -18 15 -38 26 -45 10 -6
19 -18 19 -25 0 -17 66 -82 82 -82 8 0 20 -9 28 -20 8 -11 29 -23 47 -26 18
-3 33 -10 33 -15 0 -5 11 -9 24 -9 14 0 28 -5 31 -10 3 -5 17 -10 31 -10 13 0
24 -4 24 -10 0 -6 58 -10 155 -10 97 0 155 4 155 10 0 6 20 10 45 10 25 0 45
5 45 10 0 6 18 10 40 10 22 0 40 4 40 10 0 5 16 12 35 16 19 3 35 10 35 15 0
5 9 9 20 9 11 0 20 5 20 10 0 6 9 10 20 10 11 0 20 4 20 9 0 16 58 71 74 71 9
0 16 6 16 13 0 7 13 26 30 42 16 15 32 41 35 56 4 16 11 31 16 34 5 4 9 17 9
31 0 13 5 24 10 24 6 0 10 14 10 30 0 17 5 30 10 30 6 0 10 20 10 45 0 25 5
45 10 45 6 0 10 35 10 85 0 50 -4 85 -10 85 -5 0 -10 18 -10 40 0 22 -4 40
-10 40 -5 0 -10 11 -10 25 0 14 -4 25 -10 25 -5 0 -10 9 -10 20 0 11 -4 20 -8
20 -5 0 -16 15 -25 33 -9 17 -23 41 -29 51 -19 28 -96 106 -106 106 -4 0 -23
16 -42 35 -19 19 -40 35 -48 35 -8 0 -35 22 -60 50 -25 27 -51 50 -59 50 -7 0
-13 3 -13 8 0 4 -14 16 -30 27 -16 11 -30 26 -30 34 0 7 -10 22 -22 33 -21 18
-23 28 -23 128 0 100 2 110 23 128 12 11 22 25 22 32 0 6 14 25 30 40 17 15
30 33 30 39 0 6 6 11 13 11 15 0 44 26 67 59 8 11 22 21 32 21 10 0 18 5 18
10 0 6 9 10 20 10 11 0 20 5 20 10 0 6 9 10 19 10 11 0 21 6 23 13 3 8 35 12
111 12 l106 0 35 -34 c20 -19 36 -43 36 -53 0 -10 3 -18 8 -18 10 0 32 -50 32
-72 0 -10 -4 -18 -10 -18 -5 0 -10 -13 -10 -30 0 -16 -4 -30 -10 -30 -5 0 -10
-6 -10 -14 0 -20 -75 -96 -94 -96 -9 0 -16 -4 -16 -10 0 -16 -99 -12 -116 4
-9 10 -14 37 -14 81 0 63 -13 95 -38 95 -12 0 -72 -66 -72 -80 0 -5 -9 -15
-20 -22 -12 -8 -20 -24 -20 -40 0 -16 -4 -28 -10 -28 -6 0 -10 -28 -10 -65 0
-37 4 -65 10 -65 6 0 10 -11 10 -25 0 -28 70 -105 95 -105 8 0 15 -4 15 -10 0
-5 9 -10 20 -10 11 0 20 -4 20 -10 0 -5 24 -10 54 -10 34 0 57 -5 60 -12 5
-10 7 -10 12 0 3 6 23 12 45 12 21 0 39 5 39 10 0 6 14 10 30 10 17 0 30 5 30
10 0 6 7 10 15 10 8 0 15 4 15 8 0 5 17 16 38 25 21 9 45 29 53 44 8 16 24 39
37 53 12 14 22 29 22 35 0 6 9 17 20 25 11 8 20 22 20 32 0 10 5 18 10 18 6 0
10 9 10 20 0 11 5 20 10 20 6 0 10 11 10 24 0 14 5 28 10 31 6 3 10 17 10 31
0 13 5 24 11 24 18 0 5 217 -15 255 -9 17 -16 36 -16 43 0 8 -13 27 -30 42
-16 15 -30 32 -30 37 -1 9 -67 53 -81 53 -5 0 -9 5 -9 10 0 6 -9 10 -20 10
-11 0 -20 5 -20 10 0 6 -13 10 -30 10 -16 0 -30 5 -30 10 0 6 -32 10 -75 10
-43 0 -75 4 -75 10 0 6 -4 10 -10 10 -5 0 -10 -4 -10 -10z"/>
</g>
</svg>
